PathFileType	4	(X/Y/Z)	C:\Users\°ÂÌØÂü\Desktop\20210112\bx_n_5_1802-Unnamed.trc
DataRate	CameraRate	NumFrames	NumMarkers	Units	OrigDataRate	OrigDataStartFrame	OrigNumFrames
50.00	50.00	       5	0	mm	50.00	131	       523
Frame#	Time	
		

131	2.600	-282.77130	114.56667	1284.41699	-569.89008	-49.16695	519.40436	-519.07452	169.37971	535.81512	-792.24200	233.51990	772.07190	-525.87848	2.14454	468.97424	-696.49048	-16.43895	729.51758	-696.91254	223.28088	723.72961	-681.86389	296.25836	611.21973	-593.83521	276.28458	551.62292	-509.55847	230.74510	475.70053	-618.78583	277.08771	462.66632	-517.93671	-72.66853	143.08345	-548.52325	-34.39304	163.89598	-787.34430	48.20967	179.23445	-702.17786	75.52739	207.81860	-595.42157	24.88315	166.28732	-696.07764	150.75325	206.14394	-788.19299	169.52235	190.34596	-754.91833	222.92061	206.95097	-589.56812	219.05141	173.00475	-882.72278	296.22131	144.53755	-554.41052	258.55566	163.66853	-661.25525	296.70718	159.35004	-625.96808	305.87161	159.05304	-528.45844	303.95123	146.14079	-470.41681	-59.42379	1057.27356	-547.58875	63.15950	542.72125	-636.40790	-52.03151	459.94275	-745.08557	-12.69830	209.66559	-875.69330	-78.64300	141.12302	-802.94684	-81.93355	691.20386	-706.09320	-75.14024	629.62170	-1001.22650	103.93011	808.28937	-583.94415	-50.76978	554.90198				-672.42151	171.10760	152.65271	-612.23901	-80.73074	155.38959	-649.29346	-68.20722	161.15224				-808.27209	294.50433	664.06702				-560.55017	277.27112	518.17590				-669.77301	56.08083	153.21826	-480.98074	280.12720	1043.53088	
132	2.620	-282.05127	115.11193	1272.61499	-568.47644	-47.35077	518.73035	-517.82159	169.55605	534.84760	-793.28687	233.60017	764.48126	-523.48108	4.86407	468.31702	-698.08075	-15.05933	725.95917	-698.73016	222.67273	719.68237	-681.61578	296.73532	607.69611	-592.71027	276.74506	550.06946	-507.60556	231.40590	474.77188	-617.76941	277.71832	462.44061	-518.20099	-73.18375	143.51099	-548.72986	-34.50928	164.07436	-787.46167	48.16735	179.06268	-702.38043	76.87709	207.77251	-595.52728	25.05839	165.98520	-695.87817	150.60675	206.17313	-788.19299	169.52235	190.34596	-754.84845	222.82954	207.23584	-589.60822	219.02628	172.53897	-882.65015	295.94550	144.57040	-554.22168	258.49704	163.49666	-661.40295	296.66037	159.46231	-625.86090	305.84616	159.12715	-528.50867	304.20850	146.37408	-468.11438	-58.98513	1045.63916	-546.55194	65.07333	541.99078	-634.94818	-51.12431	459.62076	-744.96179	-12.62367	209.62206	-875.86609	-78.56408	141.03810	-803.26556	-81.58227	685.77966	-705.48895	-74.21031	626.51855	-1003.16772	104.28730	800.52435	-582.00745	-48.24817	553.43134				-672.16168	170.91974	152.49768	-612.19604	-80.37327	155.38029	-649.34222	-67.68582	161.26682				-808.77460	294.32324	657.73267				-559.29694	277.78033	517.29089				-669.80414	55.94622	152.56064	-479.11334	280.48407	1031.23828	
133	2.640	-281.23361	115.62622	1261.33838	-566.93915	-46.41513	518.15936	-516.55444	169.21548	534.61804	-793.98236	233.24901	756.85077	-522.16028	6.38209	467.54114	-700.08655	-13.03037	722.78650	-700.26898	222.15640	715.62952	-681.53638	296.73825	604.55536	-591.49884	276.93613	548.62592	-507.10062	231.76535	473.90784	-616.53778	277.51709	461.27002	-517.99152	-73.07165	143.63364	-548.68164	-34.45536	163.90985	-787.56354	48.27386	179.04399	-702.62799	76.96404	207.50104	-595.73065	25.14736	165.58035	-695.81433	150.06212	206.46143	-788.20319	169.23099	190.30862	-755.01184	223.00542	207.49409	-589.48706	218.83203	172.55731	-882.55054	296.09674	144.58321	-554.40588	258.73761	163.37848	-661.25024	296.41415	159.53694	-625.88074	305.80148	159.06056	-528.54657	304.17609	146.41139	-466.04831	-58.53537	1034.71094	-546.55035	66.92088	541.29089	-634.10950	-49.78583	459.24207	-744.59601	-12.09883	209.48140	-875.86609	-78.56408	141.03810	-804.15448	-81.18192	681.60498	-705.13220	-73.89946	623.67035	-1004.16205	104.66287	792.91895	-580.63031	-46.97078	552.51013				-672.23773	170.92404	152.16911	-612.09735	-79.98305	155.51692	-649.28778	-67.67091	162.08434				-809.58813	294.36166	652.52240				-558.14594	277.25949	516.01556				-669.81891	56.08473	152.47893	-477.30002	280.18359	1020.08569	
134	2.660	-280.75027	116.02185	1250.94897	-565.32928	-45.85172	517.91431	-516.10767	168.88390	534.07770	-795.24695	233.21063	750.11615	-521.24084	7.60529	466.98450	-701.99585	-11.89770	719.60950	-701.88562	220.79890	711.92194	-681.41132	296.47470	601.69464	-590.81781	276.87613	547.17932				-615.88721	277.70688	461.04385	-518.12921	-73.02229	143.49753	-548.94720	-34.55761	164.18864	-787.74817	48.57602	178.71439	-702.51312	77.38252	207.23134	-595.84436	25.35233	165.39070	-695.83478	149.76500	206.35612	-788.09039	169.21075	190.23677	-755.01184	223.00542	207.49409	-589.69373	218.95441	172.43315	-882.57770	296.14230	144.56557	-554.43628	258.30838	162.89389	-661.40405	296.38336	159.49896	-625.90417	305.75510	159.12991	-528.32947	304.25760	146.19054	-464.34244	-57.87074	1024.07935	-545.40729	68.14893	540.54706	-632.44684	-48.84747	458.60547	-744.59271	-11.68567	209.24258	-875.78961	-78.57214	141.09050	-804.60712	-80.76535	676.98773	-704.93616	-72.99057	620.97784	-1005.93146	104.42652	785.43427	-579.22314	-45.90188	551.65204				-672.01331	171.15634	151.73929	-611.96033	-79.49858	155.60136	-649.06970	-67.50137	162.46400				-810.68536	294.21576	647.59314				-557.01489	277.29941	515.14819							-475.96381	280.19397	1009.77728	
135	2.680	-280.27258	116.65456	1241.18628	-564.29114	-44.87366	517.33844	-515.08600	168.89551	532.88910	-795.71973	233.08961	743.98413	-517.60645	10.42494	467.10559	-703.45624	-11.15743	716.98285	-703.80701	220.32487	708.24158	-681.23615	296.19949	598.99371	-589.64996	277.00970	545.99554				-614.83539	277.40598	460.12457	-518.11157	-73.10403	143.35127	-548.72876	-34.48293	164.23302	-787.17267	48.41196	178.96564	-702.20813	77.86041	206.91133	-595.56110	25.50432	165.23669	-695.82568	150.01369	205.99794	-788.17853	169.05013	190.23560	-755.02826	222.87276	207.34247	-589.69751	218.75282	172.57045	-882.65765	296.03061	144.49721	-554.61316	258.59329	163.42264	-661.53088	296.19006	159.65857	-625.88330	305.69931	159.10492	-528.31708	304.13193	146.37808	-462.71777	-57.56202	1014.32104	-544.75171	69.35802	539.91394	-631.35095	-48.26587	457.98279	-744.12372	-11.39114	209.30771	-875.80023	-78.62018	141.04199	-804.97620	-80.63596	672.38440	-704.47961	-72.18402	618.37445	-1007.30371	104.47482	778.95630	-578.19965	-45.16322	550.89453				-672.24475	170.82083	152.06865	-611.90802	-79.23630	155.89481	-649.16394	-67.06396	162.73973				-811.16992	294.65417	643.11322				-555.96082	277.95190	514.71887							-475.09518	280.22119	999.85645	
